<?xml version="1.0" encoding="utf-8"?>
<!-- Generator: Adobe Illustrator 25.4.1, SVG Export Plug-In . SVG Version: 6.00 Build 0)  -->
<svg version="1.1" id="Camada_1" xmlns="http://www.w3.org/2000/svg" xmlns:xlink="http://www.w3.org/1999/xlink" x="0px" y="0px"
	 viewBox="0 0 24 24" style="enable-background:new 0 0 24 24;" xml:space="preserve">
<style type="text/css">
	.st0{fill:none;stroke:#323232;stroke-width:1.5;stroke-linecap:round;stroke-linejoin:round;}
	.st1{fill:none;}
</style>
<g>
	<path class="st0" d="M13.1,8.5l2.5,2.5l0,0c0.6,0.6,0.6,1.5,0,2.1c0,0,0,0,0,0l-2.5,2.5v0c-0.6,0.6-1.5,0.6-2.1,0c0,0,0,0,0,0
		l-2.5-2.5l0,0c-0.6-0.6-0.6-1.5,0-2.1c0,0,0,0,0,0l2.5-2.5l0,0C11.5,7.8,12.4,7.8,13.1,8.5L13.1,8.5L13.1,8.5z"/>
	<path class="st1" d="M0,0h24v24H0V0z"/>
	<path class="st0" d="M18.3,5.6c3.5,3.5,3.5,9.2,0,12.7c-3.5,3.5-9.2,3.5-12.7,0c-3.5-3.5-3.5-9.2,0-12.7C9.1,2.1,14.8,2.1,18.3,5.6
		"/>
</g>
</svg>
